<svg xmlns="http://www.w3.org/2000/svg" xmlns:xlink="http://www.w3.org/1999/xlink" width="500" zoomAndPan="magnify" viewBox="0 0 375 374.999991" height="500" preserveAspectRatio="xMidYMid meet" version="1.0"><defs><g/><clipPath id="1fbf4c6780"><rect x="0" width="255" y="0" height="61"/></clipPath><clipPath id="8a00983bff"><rect x="0" width="146" y="0" height="37"/></clipPath><clipPath id="f2fba9d0b8"><path d="M 78.359375 64 L 297.359375 64 L 297.359375 214.738281 L 78.359375 214.738281 Z M 78.359375 64 " clip-rule="nonzero"/></clipPath></defs><g transform="matrix(1, 0, 0, 1, 68, 228)"><g clip-path="url(#1fbf4c6780)"><g fill="#000000" fill-opacity="1"><g transform="translate(1.110528, 47.150422)"><g><path d="M 17.875 0 L 7.421875 -27.3125 L 7.25 -27.3125 C 7.445312 -25.15625 7.546875 -22.585938 7.546875 -19.609375 L 7.546875 0 L 4.234375 0 L 4.234375 -30.8125 L 9.640625 -30.8125 L 19.390625 -5.390625 L 19.5625 -5.390625 L 29.40625 -30.8125 L 34.765625 -30.8125 L 34.765625 0 L 31.171875 0 L 31.171875 -19.859375 C 31.171875 -22.128906 31.269531 -24.601562 31.46875 -27.28125 L 31.296875 -27.28125 L 20.765625 0 Z M 17.875 0 "/></g></g></g><g fill="#000000" fill-opacity="1"><g transform="translate(54.794543, 47.150422)"><g><path d="M 23.609375 0 L 19.765625 -9.796875 L 7.421875 -9.796875 L 3.625 0 L 0 0 L 12.1875 -30.953125 L 15.203125 -30.953125 L 27.3125 0 Z M 18.65625 -13.03125 L 15.078125 -22.578125 C 14.609375 -23.785156 14.128906 -25.269531 13.640625 -27.03125 C 13.328125 -25.675781 12.882812 -24.191406 12.3125 -22.578125 L 8.6875 -13.03125 Z M 18.65625 -13.03125 "/></g></g></g><g fill="#000000" fill-opacity="1"><g transform="translate(96.825498, 47.150422)"><g><path d="M 23.609375 0 L 19.765625 -9.796875 L 7.421875 -9.796875 L 3.625 0 L 0 0 L 12.1875 -30.953125 L 15.203125 -30.953125 L 27.3125 0 Z M 18.65625 -13.03125 L 15.078125 -22.578125 C 14.609375 -23.785156 14.128906 -25.269531 13.640625 -27.03125 C 13.328125 -25.675781 12.882812 -24.191406 12.3125 -22.578125 L 8.6875 -13.03125 Z M 18.65625 -13.03125 "/></g></g></g><g fill="#000000" fill-opacity="1"><g transform="translate(138.856452, 47.150422)"><g><path d="M 27.640625 0 L 24.046875 0 L 24.046875 -14.5 L 7.828125 -14.5 L 7.828125 0 L 4.234375 0 L 4.234375 -30.8125 L 7.828125 -30.8125 L 7.828125 -17.703125 L 24.046875 -17.703125 L 24.046875 -30.8125 L 27.640625 -30.8125 Z M 27.640625 0 "/></g></g></g><g fill="#000000" fill-opacity="1"><g transform="translate(185.417987, 47.150422)"><g><path d="M 4.234375 0 L 4.234375 -30.8125 L 7.828125 -30.8125 L 7.828125 0 Z M 4.234375 0 "/></g></g></g><g fill="#000000" fill-opacity="1"><g transform="translate(212.171441, 47.150422)"><g><path d="M 7.828125 -12.8125 L 7.828125 0 L 4.234375 0 L 4.234375 -30.8125 L 12.6875 -30.8125 C 16.46875 -30.8125 19.257812 -30.085938 21.0625 -28.640625 C 22.875 -27.191406 23.78125 -25.015625 23.78125 -22.109375 C 23.78125 -18.035156 21.710938 -15.28125 17.578125 -13.84375 L 25.953125 0 L 21.71875 0 L 14.25 -12.8125 Z M 7.828125 -15.890625 L 12.734375 -15.890625 C 15.265625 -15.890625 17.117188 -16.390625 18.296875 -17.390625 C 19.472656 -18.398438 20.0625 -19.910156 20.0625 -21.921875 C 20.0625 -23.960938 19.460938 -25.429688 18.265625 -26.328125 C 17.066406 -27.222656 15.140625 -27.671875 12.484375 -27.671875 L 7.828125 -27.671875 Z M 7.828125 -15.890625 "/></g></g></g></g></g><g transform="matrix(1, 0, 0, 1, 124, 282)"><g clip-path="url(#8a00983bff)"><g fill="#000000" fill-opacity="1"><g transform="translate(0.992897, 28.638724)"><g><path d="M 10.828125 -9.828125 L 17.203125 -9.828125 L 17.203125 -0.703125 C 16.210938 -0.390625 15.203125 -0.15625 14.171875 0 C 13.148438 0.164062 11.960938 0.25 10.609375 0.25 C 7.773438 0.25 5.566406 -0.59375 3.984375 -2.28125 C 2.398438 -3.96875 1.609375 -6.332031 1.609375 -9.375 C 1.609375 -11.332031 2 -13.039062 2.78125 -14.5 C 3.5625 -15.96875 4.6875 -17.085938 6.15625 -17.859375 C 7.625 -18.640625 9.347656 -19.03125 11.328125 -19.03125 C 13.328125 -19.03125 15.191406 -18.660156 16.921875 -17.921875 L 16.078125 -16 C 14.378906 -16.71875 12.75 -17.078125 11.1875 -17.078125 C 8.90625 -17.078125 7.117188 -16.394531 5.828125 -15.03125 C 4.546875 -13.675781 3.90625 -11.789062 3.90625 -9.375 C 3.90625 -6.84375 4.523438 -4.921875 5.765625 -3.609375 C 7.003906 -2.304688 8.820312 -1.65625 11.21875 -1.65625 C 12.519531 -1.65625 13.789062 -1.804688 15.03125 -2.109375 L 15.03125 -7.875 L 10.828125 -7.875 Z M 10.828125 -9.828125 "/></g></g></g><g fill="#000000" fill-opacity="1"><g transform="translate(38.406247, 28.638724)"><g><path d="M 14.375 0 L 12.03125 -5.96875 L 4.515625 -5.96875 L 2.203125 0 L 0 0 L 7.421875 -18.84375 L 9.25 -18.84375 L 16.625 0 Z M 11.359375 -7.9375 L 9.171875 -13.75 C 8.890625 -14.476562 8.597656 -15.378906 8.296875 -16.453125 C 8.109375 -15.628906 7.84375 -14.726562 7.5 -13.75 L 5.28125 -7.9375 Z M 11.359375 -7.9375 "/></g></g></g><g fill="#000000" fill-opacity="1"><g transform="translate(73.318696, 28.638724)"><g><path d="M 4.765625 -7.796875 L 4.765625 0 L 2.578125 0 L 2.578125 -18.765625 L 7.71875 -18.765625 C 10.019531 -18.765625 11.71875 -18.320312 12.8125 -17.4375 C 13.914062 -16.5625 14.46875 -15.238281 14.46875 -13.46875 C 14.46875 -10.976562 13.210938 -9.300781 10.703125 -8.4375 L 15.796875 0 L 13.21875 0 L 8.671875 -7.796875 Z M 4.765625 -9.671875 L 7.75 -9.671875 C 9.289062 -9.671875 10.421875 -9.976562 11.140625 -10.59375 C 11.859375 -11.207031 12.21875 -12.125 12.21875 -13.34375 C 12.21875 -14.582031 11.847656 -15.472656 11.109375 -16.015625 C 10.378906 -16.566406 9.207031 -16.84375 7.59375 -16.84375 L 4.765625 -16.84375 Z M 4.765625 -9.671875 "/></g></g></g><g fill="#000000" fill-opacity="1"><g transform="translate(107.846392, 28.638724)"><g><path d="M 10.828125 -9.828125 L 17.203125 -9.828125 L 17.203125 -0.703125 C 16.210938 -0.390625 15.203125 -0.15625 14.171875 0 C 13.148438 0.164062 11.960938 0.25 10.609375 0.25 C 7.773438 0.25 5.566406 -0.59375 3.984375 -2.28125 C 2.398438 -3.96875 1.609375 -6.332031 1.609375 -9.375 C 1.609375 -11.332031 2 -13.039062 2.78125 -14.5 C 3.5625 -15.96875 4.6875 -17.085938 6.15625 -17.859375 C 7.625 -18.640625 9.347656 -19.03125 11.328125 -19.03125 C 13.328125 -19.03125 15.191406 -18.660156 16.921875 -17.921875 L 16.078125 -16 C 14.378906 -16.71875 12.75 -17.078125 11.1875 -17.078125 C 8.90625 -17.078125 7.117188 -16.394531 5.828125 -15.03125 C 4.546875 -13.675781 3.90625 -11.789062 3.90625 -9.375 C 3.90625 -6.84375 4.523438 -4.921875 5.765625 -3.609375 C 7.003906 -2.304688 8.820312 -1.65625 11.21875 -1.65625 C 12.519531 -1.65625 13.789062 -1.804688 15.03125 -2.109375 L 15.03125 -7.875 L 10.828125 -7.875 Z M 10.828125 -9.828125 "/></g></g></g></g></g><g clip-path="url(#f2fba9d0b8)"><path fill="#000000" d="M 297.316406 66.316406 C 297.296875 66.03125 297.207031 65.746094 297.078125 65.460938 C 297.03125 65.371094 297.011719 65.285156 296.945312 65.21875 C 296.902344 65.175781 296.902344 65.109375 296.855469 65.066406 C 296.660156 64.824219 296.398438 64.625 296.132812 64.492188 C 296.113281 64.492188 296.113281 64.472656 296.113281 64.472656 C 296.070312 64.449219 296.023438 64.472656 295.980469 64.449219 C 295.695312 64.339844 295.390625 64.296875 295.0625 64.296875 C 294.953125 64.296875 294.863281 64.296875 294.753906 64.316406 C 294.40625 64.382812 294.054688 64.515625 293.769531 64.757812 L 187.859375 152.644531 L 81.953125 64.757812 C 81.644531 64.515625 81.296875 64.382812 80.945312 64.316406 C 80.859375 64.296875 80.769531 64.296875 80.683594 64.296875 C 80.355469 64.273438 80.046875 64.316406 79.742188 64.449219 C 79.695312 64.472656 79.652344 64.449219 79.632812 64.472656 C 79.609375 64.472656 79.609375 64.492188 79.609375 64.492188 C 79.347656 64.625 79.082031 64.800781 78.886719 65.066406 C 78.84375 65.109375 78.84375 65.175781 78.800781 65.21875 C 78.734375 65.304688 78.710938 65.371094 78.667969 65.460938 C 78.535156 65.722656 78.449219 66.007812 78.425781 66.316406 C 78.425781 66.382812 78.382812 66.425781 78.382812 66.472656 L 78.382812 212.125 C 78.382812 213.332031 79.367188 214.320312 80.574219 214.320312 C 81.777344 214.320312 82.761719 213.332031 82.761719 212.125 L 82.761719 71.128906 L 119.050781 101.230469 C 113.355469 112.195312 110.335938 124.457031 110.335938 136.847656 C 110.335938 179.5625 145.132812 214.320312 187.882812 214.320312 C 230.632812 214.320312 265.410156 179.582031 265.429688 136.890625 C 265.429688 136.871094 265.429688 136.847656 265.429688 136.847656 C 265.429688 135.640625 264.445312 134.648438 263.242188 134.648438 L 235.472656 134.648438 C 234.265625 134.648438 233.28125 135.640625 233.28125 136.847656 C 233.28125 138.054688 234.265625 139.042969 235.472656 139.042969 L 260.917969 139.042969 C 259.738281 178.332031 227.457031 209.925781 187.859375 209.925781 C 147.519531 209.925781 114.691406 177.144531 114.691406 136.847656 C 114.691406 125.488281 117.410156 114.238281 122.488281 104.109375 L 186.480469 157.195312 C 186.546875 157.257812 186.632812 157.28125 186.722656 157.324219 C 186.789062 157.367188 186.855469 157.433594 186.917969 157.457031 C 186.964844 157.480469 187.007812 157.480469 187.050781 157.5 C 187.117188 157.523438 187.160156 157.542969 187.226562 157.566406 C 187.292969 157.589844 187.355469 157.589844 187.445312 157.609375 C 187.464844 157.609375 187.488281 157.609375 187.488281 157.609375 C 187.578125 157.632812 187.6875 157.65625 187.773438 157.65625 C 187.816406 157.65625 187.839844 157.675781 187.882812 157.675781 C 187.925781 157.675781 187.96875 157.65625 188.015625 157.65625 C 188.101562 157.65625 188.1875 157.632812 188.277344 157.609375 C 188.277344 157.609375 188.300781 157.609375 188.300781 157.609375 C 188.386719 157.589844 188.472656 157.589844 188.5625 157.566406 C 188.628906 157.542969 188.671875 157.523438 188.714844 157.5 C 188.757812 157.480469 188.800781 157.480469 188.847656 157.457031 C 188.914062 157.414062 188.976562 157.367188 189.042969 157.324219 C 189.132812 157.28125 189.195312 157.257812 189.285156 157.195312 L 292.980469 71.128906 L 292.980469 212.125 C 292.980469 213.332031 293.964844 214.320312 295.171875 214.320312 C 296.375 214.320312 297.359375 213.332031 297.359375 212.125 L 297.359375 66.472656 C 297.359375 66.40625 297.316406 66.359375 297.316406 66.316406 Z M 297.316406 66.316406 " fill-opacity="1" fill-rule="nonzero"/></g><path fill="#000000" d="M 141.5625 79.652344 C 142.023438 79.652344 142.507812 79.5 142.898438 79.191406 C 155.910156 69.109375 171.457031 63.769531 187.859375 63.769531 C 204.285156 63.769531 219.835938 69.085938 232.820312 79.148438 C 233.785156 79.894531 235.164062 79.71875 235.886719 78.753906 C 236.632812 77.785156 236.457031 76.425781 235.492188 75.675781 C 221.742188 65.019531 205.269531 59.375 187.859375 59.375 C 170.472656 59.375 154.003906 65.019531 140.226562 75.722656 C 139.265625 76.46875 139.089844 77.851562 139.835938 78.796875 C 140.273438 79.367188 140.90625 79.652344 141.5625 79.652344 Z M 141.5625 79.652344 " fill-opacity="1" fill-rule="nonzero"/></svg>